
            <svg id="trend-chart" width="660" height="400" title="Stack Overflow Trends Chart" version="1.1" xmlns="http://www.w3.org/2000/svg"><g></g><g class="chart-area" transform="translate(100, 20)"><g transform="translate(0,300)" fill="none" font-size="10" font-family="sans-serif" text-anchor="middle"><path class="domain" stroke="#000" d="M0.5,6V0.5H410.5V6"></path><g class="tick" opacity="1" transform="translate(12.884301126787074,0)"><line stroke="#000" y2="6" x1="0.5" x2="0.5"></line><text fill="#000" y="9" x="0.5" dy="0.71em" style="font-size: 12px;">2009</text></g><g class="tick" opacity="1" transform="translate(43.612990990836835,0)"><line stroke="#000" y2="6" x1="0.5" x2="0.5"></line><text fill="#000" y="9" x="0.5" dy="0.71em" style="font-size: 12px;">2010</text></g><g class="tick" opacity="1" transform="translate(74.34168085488659,0)"><line stroke="#000" y2="6" x1="0.5" x2="0.5"></line><text fill="#000" y="9" x="0.5" dy="0.71em" style="font-size: 12px;">2011</text></g><g class="tick" opacity="1" transform="translate(105.07037071893636,0)"><line stroke="#000" y2="6" x1="0.5" x2="0.5"></line><text fill="#000" y="9" x="0.5" dy="0.71em" style="font-size: 12px;">2012</text></g><g class="tick" opacity="1" transform="translate(135.88324877439447,0)"><line stroke="#000" y2="6" x1="0.5" x2="0.5"></line><text fill="#000" y="9" x="0.5" dy="0.71em" style="font-size: 12px;">2013</text></g><g class="tick" opacity="1" transform="translate(166.61193863844423,0)"><line stroke="#000" y2="6" x1="0.5" x2="0.5"></line><text fill="#000" y="9" x="0.5" dy="0.71em" style="font-size: 12px;">2014</text></g><g class="tick" opacity="1" transform="translate(197.34062850249398,0)"><line stroke="#000" y2="6" x1="0.5" x2="0.5"></line><text fill="#000" y="9" x="0.5" dy="0.71em" style="font-size: 12px;">2015</text></g><g class="tick" opacity="1" transform="translate(228.06931836654374,0)"><line stroke="#000" y2="6" x1="0.5" x2="0.5"></line><text fill="#000" y="9" x="0.5" dy="0.71em" style="font-size: 12px;">2016</text></g><g class="tick" opacity="1" transform="translate(258.88219642200187,0)"><line stroke="#000" y2="6" x1="0.5" x2="0.5"></line><text fill="#000" y="9" x="0.5" dy="0.71em" style="font-size: 12px;">2017</text></g><g class="tick" opacity="1" transform="translate(289.61088628605165,0)"><line stroke="#000" y2="6" x1="0.5" x2="0.5"></line><text fill="#000" y="9" x="0.5" dy="0.71em" style="font-size: 12px;">2018</text></g><g class="tick" opacity="1" transform="translate(320.3395761501014,0)"><line stroke="#000" y2="6" x1="0.5" x2="0.5"></line><text fill="#000" y="9" x="0.5" dy="0.71em" style="font-size: 12px;">2019</text></g><g class="tick" opacity="1" transform="translate(351.06826601415116,0)"><line stroke="#000" y2="6" x1="0.5" x2="0.5"></line><text fill="#000" y="9" x="0.5" dy="0.71em" style="font-size: 12px;">2020</text></g><g class="tick" opacity="1" transform="translate(381.88114406960926,0)"><line stroke="#000" y2="6" x1="0.5" x2="0.5"></line><text fill="#000" y="9" x="0.5" dy="0.71em" style="font-size: 12px;">2021</text></g></g><g class="grid-lines" transform="translate(0,300)" fill="none" font-size="10" font-family="sans-serif" text-anchor="middle"><path class="domain" stroke="#000" d="M0.5,-300V0.5H410.5V-300"></path><g class="tick" opacity="1" transform="translate(12.884301126787074,0)"><line stroke="#000" y2="-300" x1="0.5" x2="0.5" style="stroke: #ccc; fill: none;"></line></g><g class="tick" opacity="1" transform="translate(43.612990990836835,0)"><line stroke="#000" y2="-300" x1="0.5" x2="0.5" style="stroke: #ccc; fill: none;"></line></g><g class="tick" opacity="1" transform="translate(74.34168085488659,0)"><line stroke="#000" y2="-300" x1="0.5" x2="0.5" style="stroke: #ccc; fill: none;"></line></g><g class="tick" opacity="1" transform="translate(105.07037071893636,0)"><line stroke="#000" y2="-300" x1="0.5" x2="0.5" style="stroke: #ccc; fill: none;"></line></g><g class="tick" opacity="1" transform="translate(135.88324877439447,0)"><line stroke="#000" y2="-300" x1="0.5" x2="0.5" style="stroke: #ccc; fill: none;"></line></g><g class="tick" opacity="1" transform="translate(166.61193863844423,0)"><line stroke="#000" y2="-300" x1="0.5" x2="0.5" style="stroke: #ccc; fill: none;"></line></g><g class="tick" opacity="1" transform="translate(197.34062850249398,0)"><line stroke="#000" y2="-300" x1="0.5" x2="0.5" style="stroke: #ccc; fill: none;"></line></g><g class="tick" opacity="1" transform="translate(228.06931836654374,0)"><line stroke="#000" y2="-300" x1="0.5" x2="0.5" style="stroke: #ccc; fill: none;"></line></g><g class="tick" opacity="1" transform="translate(258.88219642200187,0)"><line stroke="#000" y2="-300" x1="0.5" x2="0.5" style="stroke: #ccc; fill: none;"></line></g><g class="tick" opacity="1" transform="translate(289.61088628605165,0)"><line stroke="#000" y2="-300" x1="0.5" x2="0.5" style="stroke: #ccc; fill: none;"></line></g><g class="tick" opacity="1" transform="translate(320.3395761501014,0)"><line stroke="#000" y2="-300" x1="0.5" x2="0.5" style="stroke: #ccc; fill: none;"></line></g><g class="tick" opacity="1" transform="translate(351.06826601415116,0)"><line stroke="#000" y2="-300" x1="0.5" x2="0.5" style="stroke: #ccc; fill: none;"></line></g><g class="tick" opacity="1" transform="translate(381.88114406960926,0)"><line stroke="#000" y2="-300" x1="0.5" x2="0.5" style="stroke: #ccc; fill: none;"></line></g></g><text x="205" y="360" class="axis-label x-axis-label" style="text-anchor: middle; font-weight: bold;">Year</text><g fill="none" font-size="10" font-family="sans-serif" text-anchor="end"><path class="domain" stroke="#000" d="M-6,300.5H0.5V0.5H-6"></path><g class="tick" opacity="1" transform="translate(0,300)"><line stroke="#000" x2="-6" y1="0.5" y2="0.5"></line><text fill="#000" x="-9" y="0.5" dy="0.32em" style="font-size: 12px;">0.00%</text></g><g class="tick" opacity="1" transform="translate(0,280)"><line stroke="#000" x2="-6" y1="0.5" y2="0.5"></line><text fill="#000" x="-9" y="0.5" dy="0.32em" style="font-size: 12px;">0.20%</text></g><g class="tick" opacity="1" transform="translate(0,260)"><line stroke="#000" x2="-6" y1="0.5" y2="0.5"></line><text fill="#000" x="-9" y="0.5" dy="0.32em" style="font-size: 12px;">0.40%</text></g><g class="tick" opacity="1" transform="translate(0,240)"><line stroke="#000" x2="-6" y1="0.5" y2="0.5"></line><text fill="#000" x="-9" y="0.5" dy="0.32em" style="font-size: 12px;">0.60%</text></g><g class="tick" opacity="1" transform="translate(0,220)"><line stroke="#000" x2="-6" y1="0.5" y2="0.5"></line><text fill="#000" x="-9" y="0.5" dy="0.32em" style="font-size: 12px;">0.80%</text></g><g class="tick" opacity="1" transform="translate(0,200)"><line stroke="#000" x2="-6" y1="0.5" y2="0.5"></line><text fill="#000" x="-9" y="0.5" dy="0.32em" style="font-size: 12px;">1.00%</text></g><g class="tick" opacity="1" transform="translate(0,180)"><line stroke="#000" x2="-6" y1="0.5" y2="0.5"></line><text fill="#000" x="-9" y="0.5" dy="0.32em" style="font-size: 12px;">1.20%</text></g><g class="tick" opacity="1" transform="translate(0,160)"><line stroke="#000" x2="-6" y1="0.5" y2="0.5"></line><text fill="#000" x="-9" y="0.5" dy="0.32em" style="font-size: 12px;">1.40%</text></g><g class="tick" opacity="1" transform="translate(0,140)"><line stroke="#000" x2="-6" y1="0.5" y2="0.5"></line><text fill="#000" x="-9" y="0.5" dy="0.32em" style="font-size: 12px;">1.60%</text></g><g class="tick" opacity="1" transform="translate(0,120)"><line stroke="#000" x2="-6" y1="0.5" y2="0.5"></line><text fill="#000" x="-9" y="0.5" dy="0.32em" style="font-size: 12px;">1.80%</text></g><g class="tick" opacity="1" transform="translate(0,99.99999999999997)"><line stroke="#000" x2="-6" y1="0.5" y2="0.5"></line><text fill="#000" x="-9" y="0.5" dy="0.32em" style="font-size: 12px;">2.00%</text></g><g class="tick" opacity="1" transform="translate(0,80.00000000000003)"><line stroke="#000" x2="-6" y1="0.5" y2="0.5"></line><text fill="#000" x="-9" y="0.5" dy="0.32em" style="font-size: 12px;">2.20%</text></g><g class="tick" opacity="1" transform="translate(0,60)"><line stroke="#000" x2="-6" y1="0.5" y2="0.5"></line><text fill="#000" x="-9" y="0.5" dy="0.32em" style="font-size: 12px;">2.40%</text></g><g class="tick" opacity="1" transform="translate(0,40)"><line stroke="#000" x2="-6" y1="0.5" y2="0.5"></line><text fill="#000" x="-9" y="0.5" dy="0.32em" style="font-size: 12px;">2.60%</text></g><g class="tick" opacity="1" transform="translate(0,20)"><line stroke="#000" x2="-6" y1="0.5" y2="0.5"></line><text fill="#000" x="-9" y="0.5" dy="0.32em" style="font-size: 12px;">2.80%</text></g><g class="tick" opacity="1" transform="translate(0,0)"><line stroke="#000" x2="-6" y1="0.5" y2="0.5"></line><text fill="#000" x="-9" y="0.5" dy="0.32em" style="font-size: 12px;">3.00%</text></g></g><g class="grid-lines" fill="none" font-size="10" font-family="sans-serif" text-anchor="end"><path class="domain" stroke="#000" d="M410,300.5H0.5V0.5H410"></path><g class="tick" opacity="1" transform="translate(0,300)"><line stroke="#000" x2="410" y1="0.5" y2="0.5" style="stroke: #ccc; fill: none;"></line></g><g class="tick" opacity="1" transform="translate(0,280)"><line stroke="#000" x2="410" y1="0.5" y2="0.5" style="stroke: #ccc; fill: none;"></line></g><g class="tick" opacity="1" transform="translate(0,260)"><line stroke="#000" x2="410" y1="0.5" y2="0.5" style="stroke: #ccc; fill: none;"></line></g><g class="tick" opacity="1" transform="translate(0,240)"><line stroke="#000" x2="410" y1="0.5" y2="0.5" style="stroke: #ccc; fill: none;"></line></g><g class="tick" opacity="1" transform="translate(0,220)"><line stroke="#000" x2="410" y1="0.5" y2="0.5" style="stroke: #ccc; fill: none;"></line></g><g class="tick" opacity="1" transform="translate(0,200)"><line stroke="#000" x2="410" y1="0.5" y2="0.5" style="stroke: #ccc; fill: none;"></line></g><g class="tick" opacity="1" transform="translate(0,180)"><line stroke="#000" x2="410" y1="0.5" y2="0.5" style="stroke: #ccc; fill: none;"></line></g><g class="tick" opacity="1" transform="translate(0,160)"><line stroke="#000" x2="410" y1="0.5" y2="0.5" style="stroke: #ccc; fill: none;"></line></g><g class="tick" opacity="1" transform="translate(0,140)"><line stroke="#000" x2="410" y1="0.5" y2="0.5" style="stroke: #ccc; fill: none;"></line></g><g class="tick" opacity="1" transform="translate(0,120)"><line stroke="#000" x2="410" y1="0.5" y2="0.5" style="stroke: #ccc; fill: none;"></line></g><g class="tick" opacity="1" transform="translate(0,99.99999999999997)"><line stroke="#000" x2="410" y1="0.5" y2="0.5" style="stroke: #ccc; fill: none;"></line></g><g class="tick" opacity="1" transform="translate(0,80.00000000000003)"><line stroke="#000" x2="410" y1="0.5" y2="0.5" style="stroke: #ccc; fill: none;"></line></g><g class="tick" opacity="1" transform="translate(0,60)"><line stroke="#000" x2="410" y1="0.5" y2="0.5" style="stroke: #ccc; fill: none;"></line></g><g class="tick" opacity="1" transform="translate(0,40)"><line stroke="#000" x2="410" y1="0.5" y2="0.5" style="stroke: #ccc; fill: none;"></line></g><g class="tick" opacity="1" transform="translate(0,20)"><line stroke="#000" x2="410" y1="0.5" y2="0.5" style="stroke: #ccc; fill: none;"></line></g><g class="tick" opacity="1" transform="translate(0,0)"><line stroke="#000" x2="410" y1="0.5" y2="0.5" style="stroke: #ccc; fill: none;"></line></g></g><g class="lines"><path class="line" d="M2.609833933659021,121.98198198199998L5.135479675909686,128.72200263509998L7.748821450877388,125.41454081639998L10.274467193128054,145.9606529929L12.884301126787074,150.4518263969L15.494135060446094,146.60461909689997L17.851404419880048,138.9964440933L20.457730512230388,141.22470259259998L22.983376254481055,155.85585585590002L25.593210188140073,121.43494875189998L28.118855930390737,139.19222139119998L30.728689864049763,138.91871875579997L33.33852379770878,139.4446313343L35.86416953995945,146.4102208027L38.47751131492714,155.9395418406L41.00315705717781,142.8563792827L43.612990990836835,159.36974318720002L46.22282492449585,149.9876301645L48.58009428392981,156.5340635184L51.18642037628015,168.39457479779998L53.71206611853081,159.9081555543L56.32190005218983,151.307160021L58.8475457944405,162.4741414978L61.457379728099525,164.2219236545L64.06721366175853,167.2479026156L66.5928594040092,165.49560061819997L69.20620117897691,151.19692569959997L71.73184692122757,165.52920763449998L74.34168085488659,160.0844772968L76.95151478854561,170.5470236725L79.30878414797957,168.3607830642L81.91511024032991,161.3838512187L84.44075598258058,158.9506327215L87.05058991623959,148.60759493679998L89.57623565849026,159.0664899184L92.18606959214928,161.64251569270002L94.7959035258083,173.85298567590002L97.32154926805897,166.25148279959998L99.93489104302667,177.2244447511L102.46053678527733,173.56199712159997L105.07037071893636,175.4828918323L107.68020465259538,169.8818579059L110.12166220343768,177.14840382879999L112.72798829578801,175.5277049984L115.2536340380387,165.9419479426L117.86346797169772,179.22890531550001L120.38911371394838,173.9540377855L122.9989476476074,177.9023929427L125.60878158126641,180.1412783412L128.13442732351706,184.4186405112L130.74776909848478,187.23999348290002L133.27341484073546,193.54436393879996L135.88324877439447,190.15615431729998L138.4930827080535,188.97861640180002L140.85035206748745,195.6248047305L143.4566781598378,182.9203119782L145.98232390208847,187.97155598409995L148.59215783574746,190.59816057860002L151.11780357799813,191.03958119229998L153.72763751165715,191.3651814803L156.3374714453162,174.464583888L158.86311718756684,180.31473798119998L161.47645896253454,174.92544943350003L164.0021047047852,177.3028427466L166.61193863844423,171.5023927507L169.22177257210325,175.22329165229996L171.5790419315372,182.7753620741L174.18536802388755,181.0535259134L176.7110137661382,175.1314929065L179.32084769979724,175.53478737969996L181.84649344204792,179.62239804409998L184.4563273757069,181.3899405416L187.06616130936592,183.9028456488L189.5918070516166,187.45523457959996L192.2051488265843,185.4672238749L194.73079456883497,185.28923269810002L197.34062850249398,190.326719849L199.950462436153,189.2233090879L202.30773179558696,189.21779928940003L204.9140578879373,190.6788193525L207.43970363018798,191.8889641165L210.04953756384697,184.3423039442L212.57518330609767,187.01931738049998L215.18501723975666,191.3007309472L217.79485117341568,197.8448373441L220.32049691566638,197.8434823926L222.93383869063405,195.82333444379998L225.45948443288475,199.4142220356L228.06931836654374,195.9242559864L230.67915230020276,199.48889031459998L233.1206098510451,193.94332986979998L235.72693594339543,202.15354367L238.25258168564608,198.9286436224L240.8624156193051,196.14381265420002L243.3880613615558,198.19881440950002L245.9978952952148,200.4538947275L248.60772922887378,205.747464354L251.13337497112448,208.3265714829L253.74671674609215,208.50937649349999L256.2723624883429,205.60934206360002L258.88219642200187,207.4010641457L261.49203035566086,203.2633495426L263.84929971509484,209.6266403641L266.4556258074452,211.3839689138L268.98127154969586,208.7014841418L271.59110548335485,207.8612258759L274.1167512256055,214.17393110339998L276.7265851592646,210.6340375667L279.33641909292356,218.70677796249998L281.86206483517424,216.7126408144L284.47540661014193,213.5995605341L287.0010523523926,221.5626388272L289.61088628605165,221.5622088485L292.22072021971064,218.42306576279998L294.57798957914457,228.3382295397L297.1843156714949,230.45672344899998L299.70996141374565,229.1301570467L302.31979534740464,233.7449179341L304.84544108965525,229.12383377359998L307.4552750233143,232.773858908L310.06510895697335,234.94696535629998L312.59075469922396,233.35813226239998L315.2040964741917,235.98375909330002L317.72974221644233,243.9089056107L320.3395761501014,239.160454974L322.9494100837604,239.46354321619998L325.30667944319435,238.5383836287L327.9130055355447,240.7025884839L330.4386512777953,238.8043412763L333.04848521145436,240.1590294287L335.57413095370504,241.4134507746L338.1839648873641,240.7501532961L340.7937988210231,240.3862673658L343.31944456327375,240.2245225252L345.93278633824144,244.39674557429998L348.4584320804921,242.3202938084L351.06826601415116,238.1446136275L353.67809994781015,240.27131702100002L356.11955749865245,242.5142584017L358.7258835910028,242.3545361359L361.2515293332535,245.15796128099998L363.8613632669125,245.8609747371L366.38700900916314,247.48377461130002L368.9968429428222,247.5274072566L371.60667687648123,247.2800489492L374.13232261873185,244.7400009944L376.7456643936996,245.96850522809999L379.2713101359502,245.3963051252L381.88114406960926,248.89937106920001L384.49097800326825,248.3666349509L386.84824736270224,246.7630480809L389.4545734550526,248.8359568166L391.9802191973032,244.7276796817L394.59005313096225,246.5495172734L397.1156988732129,247.8726968175L399.7255328068719,247.8033328743L402.33536674053096,250.0972680369L404.86101248278163,251.3972418809L407.4743542577493,251.3210858393L410,254.1086950485" data-legend="xml" style="stroke: rgb(31, 119, 180); fill: none;"></path><path class="line" d="M2.609833933659021,276.936936937L5.135479675909686,261.8611746759L7.748821450877388,272.0982142858L10.274467193128054,268.1875261616L12.884301126787074,256.7264859362L15.494135060446094,266.6781569574L17.851404419880048,266.4164361913L20.457730512230388,255.4481255036L22.983376254481055,256.9134351744L25.593210188140073,253.215956573L28.118855930390737,255.7466965844L30.728689864049763,252.78652101469999L33.33852379770878,245.5640845286L35.86416953995945,253.6175531177L38.47751131492714,252.7670628986L41.00315705717781,246.01528676040002L43.612990990836835,247.9645620725L46.22282492449585,246.2474416931L48.58009428392981,243.30781542260002L51.18642037628015,238.2219181391L53.71206611853081,241.0955453507L56.32190005218983,243.4497461563L58.8475457944405,236.7811336368L61.457379728099525,238.35454042519999L64.06721366175853,234.8577068597L66.5928594040092,226.0462329308L69.20620117897691,226.6097458791L71.73184692122757,226.1133603239L74.34168085488659,221.8082164228L76.95151478854561,216.60707142949997L79.30878414797957,226.2143269672L81.91511024032991,217.5653963687L84.44075598258058,208.7680688241L87.05058991623959,205.7215189874L89.57623565849026,204.0177014084L92.18606959214928,202.897181399L94.7959035258083,204.80026722739998L97.32154926805897,210.4389086596L99.93489104302667,205.8260909551L102.46053678527733,199.54505500879998L105.07037071893636,207.90562913909997L107.68020465259538,193.4293575013L110.12166220343768,190.94016325249999L112.72798829578801,191.93223606979998L115.2536340380387,188.01157164059998L117.86346797169772,184.90322976419998L120.38911371394838,187.46401465589997L122.9989476476074,194.73609443919997L125.60878158126641,191.3827807528L128.13442732351706,186.5640021722L130.74776909848478,186.7647857492L133.27341484073546,186.34338995139996L135.88324877439447,181.0981833028L138.4930827080535,176.89822930420002L140.85035206748745,169.4731482661L143.4566781598378,175.0095222469L145.98232390208847,172.122453899L148.59215783574746,168.4135465592L151.11780357799813,169.3497010545L153.72763751165715,160.3182458187L156.3374714453162,160.85230985170003L158.86311718756684,158.1286467029L161.47645896253454,158.2829229503L164.0021047047852,153.19945252609998L166.61193863844423,149.2195706843L169.22177257210325,142.42941317629996L171.5790419315372,142.33310329189996L174.18536802388755,140.1688936949L176.7110137661382,148.06527734350001L179.32084769979724,131.95038652649998L181.84649344204792,129.6489977023L184.4563273757069,132.3014524057L187.06616130936592,138.96201170639998L189.5918070516166,142.5882393913L192.2051488265843,139.1001168211L194.73079456883497,143.02396970350003L197.34062850249398,133.2506143399L199.950462436153,137.8659213874L202.30773179558696,129.00777911349996L204.9140578879373,130.5336230195L207.43970363018798,121.69262017610001L210.04953756384697,124.31810150039999L212.57518330609767,112.84839999799996L215.18501723975666,118.9824417406L217.79485117341568,126.81728657779999L220.32049691566638,121.38807598029999L222.93383869063405,115.86986104140001L225.45948443288475,118.43216877879999L228.06931836654374,114.47609093290001L230.67915230020276,108.4407946794L233.1206098510451,114.06362401089996L235.72693594339543,108.86403899529998L238.25258168564608,113.44355430729996L240.8624156193051,107.32735754640001L243.3880613615558,100.90059279529999L245.9978952952148,99.79802239509999L248.60772922887378,112.72967808319999L251.13337497112448,118.7248588644L253.74671674609215,106.8275381595L256.2723624883429,111.3430459953L258.88219642200187,103.95515060179997L261.49203035566086,105.9505427393L263.84929971509484,105.73482804029996L266.4556258074452,106.8407735406L268.98127154969586,101.82597031719999L271.59110548335485,101.34699190679999L274.1167512256055,100.28178343099998L276.7265851592646,108.41211872990002L279.33641909292356,110.14982602259997L281.86206483517424,112.4847988706L284.47540661014193,104.74814301759997L287.0010523523926,100.78298533989997L289.61088628605165,101.57631002449997L292.22072021971064,120.75496583929998L294.57798957914457,137.57833443329997L297.1843156714949,131.8904708932L299.70996141374565,126.56172787429998L302.31979534740464,137.5048283719L304.84544108965525,135.1923283993L307.4552750233143,133.17721575449997L310.06510895697335,141.9441843566L312.59075469922396,133.300758469L315.2040964741917,138.1999661648L317.72974221644233,137.0906193009L320.3395761501014,149.5628641386L322.9494100837604,141.49826000930003L325.30667944319435,133.9844364341L327.9130055355447,139.9366085579L330.4386512777953,141.05197613779998L333.04848521145436,135.0833525848L335.57413095370504,135.03261139159997L338.1839648873641,143.896600891L340.7937988210231,145.6707840873L343.31944456327375,145.7898713038L345.93278633824144,137.75570001499997L348.4584320804921,139.6092714223L351.06826601415116,148.0793180083L353.67809994781015,132.4954629843L356.11955749865245,131.934944226L358.7258835910028,136.98347790629998L361.2515293332535,140.2826931494L363.8613632669125,140.10511065359998L366.38700900916314,138.1407434841L368.9968429428222,136.67650952049996L371.60667687648123,141.98244091240002L374.13232261873185,146.5789230693L376.7456643936996,148.8608670379L379.2713101359502,141.6269368296L381.88114406960926,148.75423318819998L384.49097800326825,147.95432921030002L386.84824736270224,152.1319918888L389.4545734550526,146.7526744841L391.9802191973032,139.9030092017L394.59005313096225,142.3500202611L397.1156988732129,144.69011725299998L399.7255328068719,148.91888169679999L402.33536674053096,147.89534523109998L404.86101248278163,151.2545805478L407.4743542577493,152.3615192836L410,154.2031158877" data-legend="json" style="stroke: rgb(255, 127, 14); fill: none;"></path></g></g><g transform="translate(20, 150)"><text transform="rotate(-90)" x="-50" y="0" dy="1em" class="axis-label y-axis-label" style="text-anchor: middle; font-weight: bold;">% of Stack Overflow questions that month</text></g><g class="legend" transform="translate(530, 30)" style="font-size: 12px;"><text class="legend-title" style="font-weight: bold;">Tag</text><g class="legend-items" transform="translate(0,20)"><text y="0em" x="1em">json</text><text y="1em" x="1em">xml</text><circle cy="-0.25em" cx="0" r="0.4em" style="fill: rgb(255, 127, 14);"></circle><circle cy="0.75em" cx="0" r="0.4em" style="fill: rgb(31, 119, 180);"></circle></g><rect class="legend-box"></rect></g></svg>
        